<?xml version="1.0" encoding="UTF-8" standalone="no"?>
<svg
   version="1.1"
   id="Layer_1"
   x="0px"
   y="0px"
   viewBox="0 0 2014 1674.641"
   style="enable-background:new 0 0 2014 1674.641;"
   xml:space="preserve"
   sodipodi:docname="main.svg"
   inkscape:version="1.2.2 (b0a84865, 2022-12-01)"
   xmlns:inkscape="http://www.inkscape.org/namespaces/inkscape"
   xmlns:sodipodi="http://sodipodi.sourceforge.net/DTD/sodipodi-0.dtd"
   xmlns="http://www.w3.org/2000/svg"
   xmlns:svg="http://www.w3.org/2000/svg"><defs
   id="defs78" /><sodipodi:namedview
   id="namedview76"
   pagecolor="#ffffff"
   bordercolor="#000000"
   borderopacity="0.25"
   inkscape:showpageshadow="2"
   inkscape:pageopacity="0.0"
   inkscape:pagecheckerboard="0"
   inkscape:deskcolor="#d1d1d1"
   showgrid="false"
   inkscape:zoom="0.46033011"
   inkscape:cx="1571.6982"
   inkscape:cy="863.51076"
   inkscape:window-width="1512"
   inkscape:window-height="831"
   inkscape:window-x="0"
   inkscape:window-y="38"
   inkscape:window-maximized="0"
   inkscape:current-layer="Layer_1" />

<path
   style="display:inline;fill:#3771c8;stroke-width:1.18157"
   d="m 461.99545,1635.7735 c -14.008,-2.7357 -29.00311,-14.5339 -34.93228,-27.4849 -1.59605,-3.4862 -3.41184,-10.2669 -4.03509,-15.0682 -1.57257,-12.1144 -1.56129,-829.44749 0.0116,-840.55774 2.84121,-20.06921 17.10348,-36.38305 36.14322,-41.34227 10.08335,-2.62638 84.25167,-2.59715 94.43168,0.0372 18.44434,4.77299 32.36524,19.87006 35.88656,38.91858 1.73169,9.36762 1.82761,836.30653 0.0981,845.57373 -3.74929,20.0894 -19.85686,36.1876 -40.03828,40.0149 -7.69729,1.4598 -80.00937,1.3844 -87.56548,-0.091 z"
   id="path2079" /><path
   style="display:inline;fill:#3771c8;stroke-width:1.18157"
   d="m 1460.9673,1635.4227 c -13.1697,-3.1995 -25.2444,-12.0488 -31.6481,-23.194 -7.2352,-12.5924 -6.7494,20.8666 -6.4168,-441.94 l 0.3035,-422.35233 2.7004,-6.6789 c 5.2417,-12.96466 15.4979,-23.21557 28.4311,-28.4167 6.4307,-2.58612 8.2375,-2.70099 48.6248,-3.09132 29.6261,-0.28633 43.8545,0.0112 48.4445,1.01301 17.6476,3.85181 32.2745,17.34387 37.13,34.24925 1.6991,5.91584 1.8466,46.30505 1.573,430.74509 l -0.3018,424.2171 -4.4497,9.0033 c -7.0314,14.2269 -19.7918,24.0328 -34.9989,26.8955 -9.2364,1.7387 -81.8882,1.373 -89.392,-0.45 z"
   id="path2081" /><path
   style="display:inline;fill:#3771c8;stroke-width:3.342"
   d="m 243.96571,1548.3161 c -13.78573,-9.3755 -41.79934,-33.7323 -62.25247,-54.1261 -66.88182,-66.6879 -106.97022,-141.0638 -127.164866,-235.9285 -8.460991,-39.7456 -8.460991,-130.6961 0,-170.4418 13.155315,-61.7973 39.233312,-123.4165 73.486456,-173.63967 22.27871,-32.66585 83.757,-94.03176 116.76638,-116.55295 l 25.90047,-17.67102 v 392.88454 c 0,216.0865 -0.37597,392.803 -0.8355,392.7033 -0.45952,-0.1 -12.11473,-7.8522 -25.90047,-17.2278 z"
   id="path2083" /><path
   style="display:inline;fill:#3771c8;stroke-width:3.342"
   d="M 1741.1799,1172.8856 V 779.81094 l 12.5325,7.55429 c 65.873,39.70671 132.0946,113.87413 167.8036,187.93791 31.6428,65.63016 44.762,124.77746 44.6006,201.07946 -0.1997,94.377 -23.8624,170.726 -78.2645,252.5241 -31.5161,47.3873 -99.0206,111.9519 -139.1527,133.0925 l -7.5195,3.9611 z"
   id="path2087" /><path
   style="display:inline;fill:#214478;stroke-width:1.671"
   d="m 1083.9395,1272.2582 c -0.6735,-13.44 -2.2935,-29.6069 -3.5999,-35.9265 -1.3064,-6.3196 -3.1682,-22.3934 -4.1374,-35.7196 -2.5401,-34.9265 -3.5841,-43.0296 -5.9629,-46.2828 -1.8848,-2.5777 -2.3173,-2.1698 -3.9556,3.7311 -1.0116,3.6439 -1.8481,8.8811 -1.8589,11.6382 -0.01,2.7572 -1.0865,7.0581 -2.3905,9.5576 -1.3039,2.4996 -3.345,13.4028 -4.5356,24.2295 l -2.1648,19.6849 -1.4331,-11.697 c -1.4932,-12.1881 -3.6079,-16.7025 -6.0062,-12.8218 -1.3554,2.1931 -2.3836,-8.3642 -4.5692,-46.9164 l -1.1131,-19.6342 h -17.0982 -17.0983 l -1.3667,24.6472 c -1.2322,22.2206 -1.5264,23.8657 -2.9886,16.71 -0.892,-4.3655 -2.16,-7.9373 -2.8178,-7.9373 -1.73394,0 -3.1823,6.3969 -3.4051,15.039 l -0.19387,7.5195 -1.41398,-5.8485 c -0.7777,-3.2167 -1.86592,-13.368 -2.41828,-22.5585 -1.46404,-24.3596 -2.13087,-27.5714 -5.72421,-27.5714 -3.10029,0 -3.64342,5.8923 -6.00703,65.1689 -0.89665,22.487 -1.38436,28.6075 -1.9307,24.2295 -1.112,-8.9109 -2.24437,-12.5325 -3.91852,-12.5325 -0.90153,0 -1.63916,1.2783 -1.63916,2.8407 0,2.1371 -0.47488,2.3658 -1.91735,0.9233 -2.33097,-2.331 -7.29088,3.2575 -9.02566,10.1694 -1.96044,7.811 -3.66322,6.4065 -5.77006,-4.7593 -1.33259,-7.0625 -2.84346,-10.8451 -4.33178,-10.8451 -2.12555,0 -3.14111,-2.5127 -4.38988,-10.8615 -0.28546,-1.9085 -2.00578,-3.558 -4.01057,-3.8456 -3.07471,-0.441 -3.64455,-1.9974 -4.58851,-12.5325 -2.14614,-23.9521 -4.71283,-37.9293 -6.9651,-37.9293 -1.19983,0 -2.67696,-2.2559 -3.28254,-5.013 l -1.10103,-5.013 h -17.30011 c -15.05233,0 -17.40582,0.3799 -18.11375,2.9242 -0.4475,1.6083 -1.32115,16.8353 -1.94144,33.8377 -0.62029,17.0024 -1.69892,35.4252 -2.39695,40.9395 -1.18659,9.3738 -1.35341,9.6704 -2.56448,4.5604 -2.01234,-8.4907 -4.19466,-8.1002 -4.3116,0.7717 -0.21594,16.383 -2.77141,1.2987 -3.87578,-22.8776 -0.60873,-13.3262 -1.56974,-32.2646 -2.13557,-42.0853 l -1.02879,-17.8559 7.31836,-0.5251 c 5.76724,-0.4138 7.45093,-1.2335 7.94383,-3.8671 0.34401,-1.8381 1.29475,-3.765 2.11275,-4.2821 0.818,-0.517 2.20043,-8.4248 3.07207,-17.5729 0.87164,-9.1481 2.7472,-23.2986 4.16791,-31.4456 1.42072,-8.1469 2.58312,-17.3903 2.58312,-20.5408 0,-3.3934 0.68112,-5.3073 1.67099,-4.6955 0.91905,0.568 1.6718,2.6802 1.67277,4.6938 0.003,5.2987 8.33915,38.4668 10.13358,40.3176 0.92564,0.9548 2.32193,-0.675 3.57899,-4.1775 l 2.06122,-5.743 1.17885,7.5195 c 0.64837,4.1357 1.23459,11.0913 1.30271,15.4567 0.0681,4.3655 0.78537,7.9373 1.59387,7.9373 0.80851,0 2.07293,-9.5874 2.80983,-21.3052 1.26851,-20.1713 1.40608,-20.7716 2.5846,-11.2793 0.68463,5.5143 1.75255,18.8986 2.37317,29.7428 0.78301,13.6819 1.71567,19.5219 3.04713,19.08 1.96902,-0.6536 3.20764,-9.5726 5.38785,-38.7968 1.36636,-18.315 2.7963,-16.4519 4.94895,6.448 1.07085,11.3917 3.28866,13.1627 4.48077,3.578 0.39231,-3.1542 1.08477,-0.6758 1.86749,6.684 2.40512,22.6148 2.29473,22.3162 8.69141,23.5162 3.18161,0.5968 8.41656,0.5915 11.63323,-0.012 5.22171,-0.9796 5.85474,-1.671 5.90679,-6.4522 0.10773,-9.8954 4.68743,-31.4342 7.64277,-35.9446 l 2.92851,-4.4695 1.10574,4.1616 c 0.60816,2.2888 2.07302,11.493 3.25524,20.4538 2.99073,22.6684 4.88437,21.4297 7.7208,-5.0504 1.3322,-12.4368 3.2398,-14.6479 4.5042,-5.2209 0.5007,3.7332 1.3622,7.2393 1.9143,7.7914 2.6005,2.6006 4.1435,-4.2126 6.7231,-29.6868 3.459,-34.1592 3.7504,-35.6406 6.7819,-34.4773 1.6814,0.6452 2.9194,-1.0452 4.1719,-5.6966 0.9796,-3.6377 2.4413,-6.614 3.2483,-6.614 0.8071,0 2.1709,-2.0679 3.0308,-4.5953 1.5512,-4.5592 1.5722,-4.5429 2.673,2.0888 1.1828,7.1255 4.3572,57.0564 4.3821,68.9287 0.01,3.9059 0.7669,7.1017 1.686,7.1017 0.9451,0 1.743,-5.2628 1.8368,-12.1147 0.1991,-14.5456 2.5351,-42.6118 2.9554,-35.5087 0.9797,16.5568 3.6346,47.746 4.5297,53.2144 2.2614,13.8153 4.2862,2.0467 5.2452,-30.4871 0.5466,-18.5428 1.6283,-34.1063 2.4038,-34.5856 0.7755,-0.4793 1.4101,2.1363 1.4101,5.8125 0,11.7084 4.7293,9.878 5.2401,-2.0282 0.3102,-7.2292 4.1478,34.2174 5.6215,60.7126 l 1.1978,21.5348 4.868,1.0692 c 2.6775,0.5881 7.8596,0.5638 11.5158,-0.054 5.7194,-0.9663 6.6795,-1.7443 6.8753,-5.5715 0.208,-4.0658 0.2908,-4.1172 0.9635,-0.5985 1.1008,5.758 14.1839,9.3984 20.1559,5.6084 2.8744,-1.8242 5.2298,-25.1649 14.7819,-146.48006 l 1.1841,-15.03898 3.1027,16.70998 c 1.7064,9.19049 4.2159,23.79916 5.5767,32.46376 1.7839,11.3591 3.4053,16.6213 5.8123,18.8638 1.836,1.7105 3.3399,4.0207 3.342,5.1337 0.01,4.906 5.0886,51.9545 5.6723,52.5382 0.8042,0.8042 2.2762,-15.8896 3.6872,-41.8153 0.59,-10.8393 1.3144,-19.4661 1.6098,-19.1707 0.2954,0.2955 1.3917,16.6814 2.4362,36.4132 1.0445,19.7318 2.2144,36.1914 2.5999,36.5769 2.0357,2.0356 2.8564,-3.7856 3.9967,-28.3462 0.9359,-20.159 1.842,-27.3759 3.5742,-28.4687 2.9044,-1.8323 5.9902,2.0178 8.1104,10.1191 2.0529,7.8445 5.0587,41.302 5.0658,56.389 0.01,13.4861 1.5974,15.5381 12.0106,15.49 7.7929,-0.036 9.0843,-1.3653 10.5269,-10.8359 0.9994,-6.5614 1.5621,-7.6376 2.6209,-5.013 0.7416,1.8381 1.4012,5.7858 1.4658,8.7727 0.1367,6.3213 4.478,7.6116 5.6222,1.671 l 0.7241,-3.7597 0.2276,3.7279 c 0.2731,4.4741 5.7979,6.2761 15.3246,4.9983 l 6.5402,-0.8772 -0.8067,9.4435 c -3.2,37.4588 -4.4982,48.1945 -7.6547,63.3013 -3.5737,17.104 -6.4918,21.0431 -6.4918,8.7634 0,-12.0011 -5.1886,-44.2114 -7.5012,-46.5668 -1.9416,-1.9775 -2.4174,-1.4762 -3.1723,3.342 -0.4885,3.1177 -1.3632,15.4439 -1.9438,27.3915 -0.5807,11.9476 -1.6292,26.2347 -2.3302,31.749 -1.1871,9.338 -1.3629,9.6533 -2.5629,4.5952 -2.6869,-11.326 -4.3561,-6.2235 -6.9697,21.3052 -0.9849,10.374 -1.3882,11.6018 -2.3418,7.1285 -0.6337,-2.9722 -1.2288,-11.331 -1.3226,-18.5752 -0.3176,-24.535 -3.6977,-66.0246 -5.562,-68.2709 -1.0197,-1.2286 -2.2268,-9.3611 -2.6824,-18.0721 -0.4557,-8.711 -1.3356,-15.8381 -1.9554,-15.8381 -1.2716,0 -7.8716,55.9148 -10.0715,85.3252 -0.7948,10.6265 -1.9949,22.251 -2.6667,25.8323 -1.1596,6.1811 -1.2987,6.303 -2.7422,2.4021 -0.8364,-2.2601 -2.2142,-19.5242 -3.0619,-38.3647 -2.1625,-48.0665 -3.7717,-63.498 -6.6216,-63.498 -0.7786,0 -1.7596,1.316 -2.1799,2.9243 -0.4203,1.6083 -0.8617,-1.5875 -0.9808,-7.1018 -0.3945,-18.2531 0.4156,-17.5454 -20.0832,-17.5454 h -17.8514 l -2.9832,11.2792 c -1.7808,6.7333 -3.8515,24.7488 -5.1376,44.6992 -1.1851,18.381 -2.3432,33.7959 -2.5738,34.2555 -0.2305,0.4595 -0.977,-2.1723 -1.6589,-5.8485 -0.6819,-3.6762 -2.4677,-13.3621 -3.9684,-21.5241 -1.5007,-8.1621 -2.74,-19.4413 -2.7541,-25.065 -0.041,-16.3569 -2.8311,-16.9619 -3.9559,-0.8578 -0.5388,7.7148 -1.6202,23.3058 -2.4031,34.6468 -0.9562,13.8503 -2.1396,21.0624 -3.6047,21.9679 -1.5254,0.9427 -3.0116,11.825 -4.9432,36.194 l -2.762,34.8461 z"
   id="path2176" /><path
   style="display:inline;fill:#214478;stroke-width:1.671"
   d="m 699.58666,1256.5905 c -0.6427,-3.6762 -2.62906,-25.3899 -4.41413,-48.2528 -1.78506,-22.8628 -3.65165,-41.9749 -4.14796,-42.4712 -0.49631,-0.4963 -0.90238,1.2532 -0.90238,3.8878 0,2.7194 -0.60402,4.104 -1.39723,3.2028 -1.91418,-2.1748 -6.95776,-24.2944 -6.95776,-30.5146 0,-9.6745 -0.92736,-10.3413 -14.38226,-10.3413 h -12.35371 v -12.4339 c 0,-6.8386 0.67956,-12.8539 1.51014,-13.3672 0.83058,-0.5133 1.98753,-9.0171 2.571,-18.8973 1.79316,-30.3646 4.55232,-60.0906 8.41435,-90.65247 4.03351,-31.91881 3.9087,-31.97994 6.82299,3.34197 0.56871,6.8929 1.69733,15.6203 2.50804,19.3942 4.19807,19.5424 9.99886,65.8903 10.9868,87.7837 1.00635,22.3014 1.42435,24.831 4.10318,24.831 3.49799,0 4.23392,-4.3577 5.64397,-33.42 2.04741,-42.1987 2.9139,-56.0092 3.55584,-56.6747 0.3694,-0.3829 0.67991,3.3768 0.69002,8.355 0.0341,16.7973 2.85725,26.2218 5.66388,18.9079 0.56475,-1.4718 1.90133,-17.6358 2.97017,-35.9201 1.06885,-18.2843 2.11368,-33.0591 2.32186,-32.8328 0.20818,0.2262 1.69405,14.3224 3.30193,31.3248 1.60787,17.0024 3.56519,31.6278 4.34958,32.5009 0.82653,0.92 1.42617,-0.351 1.42617,-3.0229 0,-2.648 0.71122,-4.1707 1.671,-3.5775 0.91905,0.568 1.671,7.3184 1.671,15.0009 0,14.6204 1.00684,19.8622 3.51709,18.3108 0.82274,-0.5085 1.4959,0.9554 1.4959,3.253 0,7.1162 3.08085,6.5074 5.09935,-1.0078 1.05622,-3.9325 2.57446,-8.8282 3.37387,-10.8794 0.79942,-2.0512 1.95563,-8.6307 2.56938,-14.6212 0.61374,-5.9905 1.64435,-10.8918 2.29023,-10.8918 2.19903,0 4.82878,17.49 6.90928,45.9524 1.16501,15.938 2.86257,28.9458 3.8674,29.6346 2.38004,1.6315 14.61502,1.5732 17.22092,-0.082 2.22021,-1.4102 4.33451,-17.7617 7.49434,-57.9595 l 1.97029,-25.0649 1.76001,11.6969 c 0.96801,6.4334 2.27641,10.9031 2.90757,9.9327 1.02148,-1.5705 6.36429,-38.2574 6.36429,-43.701 0,-1.1869 1.12792,-2.1581 2.50649,-2.1581 1.47028,0 2.52751,-1.5543 2.55731,-3.7598 0.0393,-2.9102 0.36651,-3.1934 1.44802,-1.2532 2.16787,3.889 6.71422,49.7935 7.77824,78.5369 1.03638,27.9964 1.68019,33.42 3.96713,33.42 0.81594,0 2.02593,-10.5273 2.68885,-23.394 0.66293,-12.8667 1.76378,-23.394 2.44635,-23.394 0.68257,0 1.76579,6.0156 2.40714,13.368 0.64136,7.3524 1.77872,13.368 2.52748,13.368 2.50402,0 3.42023,-8.9222 5.23353,-50.9655 0.99097,-22.9762 2.42483,-44.0307 3.18637,-46.7879 l 1.38463,-5.013 0.15072,5.7169 c 0.0829,3.1443 1.30423,6.9916 2.71409,8.5495 1.40987,1.5578 3.25498,7.2567 4.10027,12.664 1.30146,8.3255 5.03332,75.8041 5.03332,91.0115 0,4.5462 0.43708,4.8765 6.45351,4.8765 h 6.45351 l 1.00011,-12.1148 c 0.55006,-6.6631 2.20403,-27.9056 3.67549,-47.2057 1.47145,-19.3 3.22672,-38.8507 3.90058,-43.4459 1.16751,-7.9617 1.36504,-7.3324 4.19574,13.368 1.6338,11.9476 3.6569,32.6262 4.49576,45.9524 0.83885,13.3262 2.00934,28.5532 2.60107,33.8377 1.05497,9.4218 0.99476,9.6083 -3.1017,9.6083 -4.01078,0 -4.22412,0.5337 -5.34367,13.3679 -0.83792,9.6058 -1.80752,13.368 -3.44517,13.368 -3.24028,0 -3.56978,1.8218 -7.55588,41.775 -4.61283,46.2348 -5.74446,50.8581 -7.36212,30.0779 -2.02485,-26.0109 -5.47282,-50.3039 -7.4155,-52.2466 -3.73856,-3.7385 -8.13609,11.8698 -10.24758,36.3722 -2.67791,31.0754 -4.5432,46.4044 -4.80275,39.4696 -0.1163,-3.106 -2.0555,-14.0093 -4.30941,-24.2294 -5.08041,-23.0368 -7.28357,-39.2186 -8.68834,-63.8145 -1.00917,-17.6693 -2.56874,-23.348 -4.44275,-16.1769 -0.4203,1.6083 -0.85141,-0.2715 -0.95802,-4.1775 -0.30832,-11.296 -4.96092,-8.303 -5.40751,3.4787 -0.20368,5.3734 -0.79568,3.4399 -4.13504,-13.5047 -0.67715,-3.436 -1.67339,-3.7597 -11.5706,-3.7597 h -10.82965 l -0.0256,5.4307 c -0.0189,4.005 -0.43395,4.785 -1.5811,2.9711 -2.47595,-3.9151 -3.03886,-0.1738 -4.14125,27.5246 -2.01254,50.5667 -3.8937,57.4786 -7.50387,27.5715 -1.05393,-8.731 -2.73796,-20.0102 -3.74227,-25.065 -2.64803,-13.3276 -4.31674,-7.0266 -5.73672,21.6616 -0.63854,12.9004 -1.79876,23.4554 -2.57828,23.4554 -0.77952,0 -2.48605,2.4438 -3.79229,5.4307 -1.96625,4.4961 -2.39844,4.8007 -2.51129,1.7696 -0.23164,-6.2216 -3.24766,-5.9515 -4.43875,0.3975 -0.62113,3.3109 -1.72604,5.3997 -2.45538,4.6417 -1.86057,-1.9335 -4.61904,-32.9091 -5.96341,-66.9647 -1.01988,-25.8358 -1.43928,-28.8247 -4.04457,-28.8247 -2.14373,0 -3.17768,1.8641 -3.939,7.1017 -1.76289,12.1279 -5.8899,53.4491 -7.65549,76.6497 -2.13379,28.0388 -3.48815,38.2314 -5.08005,38.2314 -0.69346,0 -1.69988,-1.6789 -2.23649,-3.7309 -1.36041,-5.2022 -4.58906,-1.6923 -6.04383,6.5702 l -1.11825,6.3512 z"
   id="path2178" /><path
   style="display:inline;fill:#214478;stroke-width:1.671"
   d="m 615.99065,1267.0343 c -3.68751,-99.2522 -4.43932,-116.6294 -5.4221,-125.3249 l -1.08594,-9.6082 h -7.16109 -7.16108 l -1.10149,12.9502 c -0.60582,7.1226 -1.36256,13.7022 -1.68164,14.6212 -1.58255,4.5581 -0.57127,-65.4435 1.72602,-119.4763 3.32446,-78.19242 4.74605,-88.38234 6.41083,-45.95247 1.40107,35.70877 6.84736,103.78037 9.89564,123.68287 1.99645,13.0349 2.05324,13.1409 7.85947,14.6693 3.21667,0.8468 12.86948,1.1832 21.45067,0.7476 l 15.60218,-0.7919 -1.033,17.7379 c -1.38746,23.8244 -2.49881,31.9415 -4.37327,31.9415 -0.86274,0 -1.67102,3.9477 -1.79617,8.7727 -0.2514,9.6916 -0.73059,7.7653 -2.35005,-9.4471 -0.63798,-6.7808 -1.63222,-10.6511 -2.41202,-9.3894 -0.85013,1.3756 -1.74555,-0.3329 -2.49289,-4.7563 -0.64142,-3.7966 -1.78793,-6.9029 -2.54778,-6.9029 -1.76435,0 -2.89757,14.6167 -4.92297,63.498 -1.383,33.3777 -4.11989,58.1452 -7.80149,70.5996 -0.49513,1.675 -2.48879,2.9243 -4.66662,2.9243 -3.77532,0 -3.81021,-0.2156 -4.93521,-30.4957 z"
   id="path2180" /><path
   style="display:inline;fill:#214478;stroke-width:1.671"
   d="m 1242.3478,1110.7959 c 0.623,-11.7178 1.821,-25.8169 2.6621,-31.3312 0.8412,-5.5143 1.5351,-14.3711 1.542,-19.6817 0.026,-19.9381 7.9225,-85.28264 11.9586,-98.95913 l 1.9725,-6.68399 1.3515,5.84849 c 2.145,9.28187 7.9198,78.30493 9.1572,109.45033 0.6207,15.6239 1.8706,28.8895 2.7776,29.4792 0.9069,0.5897 2.0269,8.2971 2.4888,17.1277 l 0.8398,16.0556 h -17.9415 -17.9414 z"
   id="path2182" /><path
   style="display:inline;fill:#214478;stroke-width:1.671"
   d="m 1314.5594,1237.5467 c -0.6352,-5.8789 -1.1549,-16.5942 -1.1549,-23.8117 0,-14.7672 -2.3322,-17.4896 -4.0285,-4.7025 -0.6144,4.6312 -1.832,10.3011 -2.706,12.5997 -1.3254,3.486 -2.1238,3.8931 -4.8129,2.4539 -1.7732,-0.9489 -4.1478,-4.5245 -5.2769,-7.9457 -1.7441,-5.2848 -2.2353,-5.7265 -3.2657,-2.9371 -0.6671,1.8058 -1.7722,8.8588 -2.4557,15.6733 -1.9184,19.1254 -3.8019,11.3853 -6.7227,-27.6268 -1.4368,-19.1913 -3.3216,-41.6607 -4.1885,-49.9322 -2.0773,-19.8205 -2.131,-19.2164 1.7079,-19.2164 2.9628,0 3.342,-1.114 3.342,-9.8171 0,-11.5486 1.5526,-20.5313 3.3561,-19.4167 2.5829,1.5964 4.9552,-3.8852 6.9235,-15.9983 1.1098,-6.8295 2.5506,-13.0476 3.2017,-13.8179 0.651,-0.7702 1.6904,4.8694 2.3096,12.5325 1.6607,20.5529 6.025,45.5044 8.205,46.9096 1.0475,0.6752 3.4085,1.2277 5.2466,1.2277 1.838,0 4.1966,-0.5525 5.2411,-1.2277 1.1687,-0.7554 2.634,-12.4749 3.8098,-30.4701 1.0508,-16.0834 2.4065,-33.0022 3.0126,-37.5975 l 1.1019,-8.3549 2.831,16.7099 c 1.5571,9.1905 3.7968,26.2654 4.9771,37.9441 2.1252,21.0268 2.1903,21.2438 6.6641,22.2264 2.4848,0.5458 6.4116,0.517 8.7262,-0.064 4.5913,-1.1524 4.2876,0.5136 7.2497,-39.7659 0.8028,-10.9165 1.8523,-15.4768 4.038,-17.5455 1.6243,-1.5372 3.3231,-4.299 3.7752,-6.1371 0.7449,-3.0282 0.8402,-2.989 1.0159,0.4178 0.1066,2.0678 0.8399,3.7597 1.6295,3.7597 1.5631,0 2.9251,-10.7878 8.8081,-69.7641 2.1315,-21.36792 4.3908,-38.85074 5.0208,-38.85074 0.6299,0 1.634,6.57956 2.2313,14.62124 0.5972,8.04167 2.5096,27.7803 4.2497,43.8637 1.7401,16.0833 3.6722,34.8821 4.2936,41.7749 1.274,14.1327 3.1529,19.0785 6.7269,17.707 1.5492,-0.5945 3.0039,0.5715 4.008,3.2124 2.7159,7.1434 4.5671,4.5796 5.7544,-7.9691 0.6303,-6.6631 1.7086,-14.7466 2.3961,-17.9632 l 1.25,-5.8485 1.287,6.6344 c 0.7078,3.649 1.9126,16.8081 2.6773,29.2425 0.7648,12.4344 2.2655,25.0187 3.3351,27.9652 3.7995,10.4672 -2.0512,88.5036 -7.654,102.0897 -1.9311,4.6826 -2.7528,5.2604 -5.4375,3.8236 -4.1769,-2.2355 -4.7931,-6.7867 -7.19,-53.106 l -2.0206,-39.0463 -20.1812,0.4669 -20.1812,0.4669 -1.2188,11.697 c -6.3945,61.3666 -12.3565,91.3382 -15.3872,77.352 -0.9014,-4.1597 -3.5122,-31.9005 -5.1962,-55.2113 -0.581,-8.0417 -1.6381,-14.6213 -2.3492,-14.6213 -1.3933,0 -2.7499,18.6095 -4.4462,60.9915 -0.5886,14.7048 -1.6118,27.7536 -2.2738,28.9974 -0.6621,1.2438 -1.7249,-3.9877 -2.3619,-11.6257 -1.7817,-21.3639 -3.8984,-20.6722 -6.7839,2.2167 l -1.9543,15.5025 z"
   id="path2184" /><path
   style="display:inline;fill:#214478;stroke-width:3.342"
   d="m 290.21342,1018.7843 1.13076,-550.28351 11.66421,-33.51043 c 25.799,-74.11861 67.67618,-137.54243 127.21969,-192.67674 35.50272,-32.87374 76.29333,-59.21151 139.58225,-90.12575 110.2614,-53.858539 204.94777,-84.605442 316.53211,-102.785475 44.41917,-7.237053 186.96066,-8.130637 231.55526,-1.451605 112.5367,16.854865 215.339,49.556788 327.5156,104.18435 79.2283,38.58244 133.7033,78.72614 178.1669,131.29458 61.0904,72.22601 91.4814,137.05524 97.3871,207.74294 1.6938,20.27449 4.1339,271.09487 5.4222,557.37864 l 2.3426,520.5158 h -62.287 -62.287 l -0.027,-522.1868 c -0.017,-315.5239 -1.3082,-533.34518 -3.2667,-550.38107 -5.6267,-48.94383 -32.8892,-96.27281 -88.3741,-153.42164 -56.0103,-57.69148 -98.3143,-84.2393 -186.5717,-117.08348 -88.9686,-33.10883 -165.8821,-53.24831 -230.448,-60.34187 -47.0978,-5.17442 -142.90257,-4.39769 -188.78329,1.53055 -89.25492,11.5326 -212.75993,50.12847 -295.66102,92.39539 C 526.18376,302.8351 452.1229,382.76205 419.31711,466.47227 l -8.25159,21.05554 v 540.76969 540.7696 l -60.99143,4e-4 -60.99143,3e-4 z"
   id="path2186" /></svg>
