<?xml version="1.0" encoding="UTF-8" standalone="no"?>
<svg
   version="1.1"
   id="Layer_1"
   x="0px"
   y="0px"
   viewBox="0 0 2014 1674.641"
   style="enable-background:new 0 0 2014 1674.641;"
   xml:space="preserve"
   sodipodi:docname="Sound-Wave-Headphones.svg"
   inkscape:version="1.2.2 (b0a84865, 2022-12-01)"
   xmlns:inkscape="http://www.inkscape.org/namespaces/inkscape"
   xmlns:sodipodi="http://sodipodi.sourceforge.net/DTD/sodipodi-0.dtd"
   xmlns="http://www.w3.org/2000/svg"
   xmlns:svg="http://www.w3.org/2000/svg"><defs
   id="defs78" /><sodipodi:namedview
   id="namedview76"
   pagecolor="#ffffff"
   bordercolor="#000000"
   borderopacity="0.25"
   inkscape:showpageshadow="2"
   inkscape:pageopacity="0.0"
   inkscape:pagecheckerboard="0"
   inkscape:deskcolor="#d1d1d1"
   showgrid="false"
   inkscape:zoom="0.29922238"
   inkscape:cx="1047.7158"
   inkscape:cy="1161.3436"
   inkscape:window-width="1512"
   inkscape:window-height="945"
   inkscape:window-x="0"
   inkscape:window-y="37"
   inkscape:window-maximized="0"
   inkscape:current-layer="Layer_1" />
<g
   id="g73">
	<g
   id="g67">
		<path
   d="M44.883,1173.316c0,169.585,92.136,317.373,229.075,396.587V776.375C137.017,855.591,44.883,1003.743,44.883,1173.316z"
   id="path57" />
		<path
   d="M1496.492,173.21c-338.535-181.18-640.455-181.191-978.978,0c-115.337,61.726-232.101,201.313-232.101,348.663v1048.02    h125.991V521.873c0-100.785,121.243-229.182,225.541-272.385c280.148-116.037,459.996-116.037,740.11,0    c104.303,43.203,225.541,171.6,225.541,272.385v1048.02h125.991V521.873C1728.587,374.517,1611.824,234.936,1496.492,173.21z"
   id="path59" />
		<path
   d="M1740.041,776.375v793.529c136.941-79.214,229.075-227.002,229.075-396.587    C1969.117,1003.743,1876.983,855.591,1740.041,776.375z"
   id="path61" />
		<path
   d="M541.724,709.027h-70.645c-27.201,0-49.252,22.051-49.252,49.253v829.789c0,27.201,22.05,49.252,49.252,49.252h70.645    c27.201,0,49.252-22.051,49.252-49.252V758.28C590.976,731.078,568.926,709.027,541.724,709.027z"
   id="path63" />
		<path
   d="M1541.983,709.027h-70.646c-27.2,0-49.252,22.051-49.252,49.253v829.789c0,27.201,22.052,49.252,49.252,49.252h70.646    c27.2,0,49.252-22.051,49.252-49.252V758.28C1591.234,731.078,1569.183,709.027,1541.983,709.027z"
   id="path65" />
	</g>
	<g
   id="g71">
		<path
   d="M595.967,1132.815c4.322-0.219,8.643-0.184,12.965,0c0.197,4.557,3.624,24.404,4.471,95.602    c0,1.438,0.298,2.849,0.728,4.225c0.691,13.2-0.668,21.337,0.868,26.298c0.386,12.904,0.053,25.834,0.158,38.746h10.467    c10.735-37.493,8.785-86.788,9.941-115.01c1.07-3.103,0.614-6.426,0.868-9.634c0.615-2.041,1.597-9.992,1.753-11.519    c0.368,0.377,1.113,1.131,1.481,1.508c0.079,4.827,0.295,5.098,2.007,12.833c0.342,0,1.034-0.009,1.376-0.009    c0.421-1.771,0.877-3.515,1.315-5.277l0.657-0.009c0.202,4.611-0.719,9.38,0.684,13.859c0.491,4.374-0.508,8.889,0.85,13.149    c0.114,1.683,0.175,3.357,0.263,5.049c0.552-0.92,1.122-1.85,1.692-2.77c0.052-13.129,0.408,0.674,0.894-17.479    c0.307,0.552,0.92,1.657,1.227,2.209c0.316,0.018,0.938,0.044,1.245,0.061c2.638-11.892,2.56-18.294,3.647-51.86    c8.152-0.21,16.314-0.263,24.466,0.044c0.018,2.314-0.018,4.681,0.78,6.89c0.677,13.255,1.433,10.704,2.016,18.926    c1.554,2.913,2.279,3.212,5.295,20.714c0.394,0,1.183,0,1.578,0.009c0.454-9.931,0.998-1.96,0.964-13.184l0.868,0.009    c0.096,3.734-0.561,7.609,0.684,11.229c0.298,3.498-0.307,7.127,0.868,10.519c0.307,3.498-0.307,7.135,0.877,10.519    c0.307,3.498-0.307,7.127,0.877,10.519c0.368,3.787-0.394,7.714,0.868,11.387c0.438,4.085-0.465,8.319,0.877,12.281    c0.298,3.498-0.298,7.127,0.868,10.519c0.949,15.108,1.515,17.226,2.858,21.626c0.421-0.412,1.262-1.227,1.692-1.639    c-0.187-3.823,0.79-9.648,3.98-14.937c0.701,1.157,1.411,2.332,2.13,3.498c0.018,0.412,0.053,1.236,0.07,1.648    c0.894,1.657,1.815,3.357,3.261,4.629c0.52-4.824,0.271-3.677,1.525-8.757c0.155-0.87,1.114-8.042,1.552-15.709    c1.21-3.691,0.491-7.609,0.85-11.405c1.341-3.962,0.43-8.196,0.877-12.272c0,0,6.76-64.946,7.004-68.375    c1.008-2.77,0.728-5.742,0.728-8.617c1.727,0,3.471,0,5.225-0.009c0,3.173-0.377,6.443,0.701,9.494    c0.152,3.522,0.148,41.365,1.753,46.478c0.447,4.076-0.473,8.31,0.877,12.272c0.289,3.498-0.281,7.118,0.85,10.51    c0.612,11.986,0.925,9.898,2.016,17.383c0.43,0.403,1.289,1.21,1.718,1.613c0.386-0.395,1.157-1.175,1.543-1.569    c1.113-3.427,2.27-6.908,2.06-10.572c0.351,0.377,1.043,1.122,1.394,1.49c0.307,0.982,0.631,1.972,0.982,2.954    c0.009,0.824,0.035,1.648,0.07,2.472c0.736,0.912,1.499,1.841,2.279,2.744c1.695-6.242,1.537-5.465,2.367-9.923    c0.394-0.377,1.175-1.122,1.569-1.499c-0.026,1.455-0.035,2.928-0.044,4.392c0.43,0.386,1.28,1.148,1.709,1.534    c2.593-15.316,1.515-32.185,4.646-59.933h0.517c0.257,2.44,0.455,5.251,2.656,12.053c0.04,1.752,2.071,29.42,6.46,44.391    c0.377-0.386,1.131-1.166,1.508-1.56c2.511-20.088,0.17,17.604,5.33-78.561l0.622,0.009c0.403,1.569,0.842,3.13,1.28,4.699    c0.395-0.377,1.175-1.148,1.569-1.534c0.153-5.981,0.067-4.293,1.201-9.362c6.539-0.281,13.079-0.289,19.627-0.018    c1.093,6.281,3.062,17.853,3.831,24.948c0.403-0.377,1.219-1.14,1.631-1.525c0.133-3.59,1.852-14.417,2.919-17.453    c0.377,0.377,1.14,1.122,1.516,1.499c-0.034,12.962,0.097,3.675,0.947,13.657c0.421,0.009,1.253,0.009,1.674,0.009    c0-1.762,0.009-3.524,0.026-5.277h1.718c0.237,4.602-0.701,9.371,0.71,13.85c0.386,3.787-0.412,7.732,0.877,11.405    c0.298,3.498-0.298,7.127,0.859,10.519c0.455,8.447,1.972,19.645,2.595,21.906c-0.347,7.057,9.094,35.294,9.888,54.043    c0.429-0.395,1.28-1.192,1.709-1.587c0.061-1.42,0.14-2.84,0.263-4.252c0.885-2.831,0.675-5.829,0.85-8.748    c1.131-3.401,0.561-7.022,0.859-10.519c1.166-3.393,0.561-7.022,0.876-10.519c1.157-3.392,0.57-7.022,0.877-10.528    c0.697-2.038,1.719-16.578,1.78-17.532c0.086-0.331,0.978-5.454,1.788-8.924c2.042-3.033,3.515-6.399,5.26-9.599    c0.324,0.368,0.964,1.122,1.289,1.499c2.896,10.614,5.277,40.7,5.277,40.701c1.101,16.794,2.417,23.952,2.866,28.779    c0.412,0.394,1.245,1.175,1.657,1.569c0.071-0.869,8.706-77.968,8.959-86.556c0.561-1.779,1.105-3.559,1.727-5.312    c0.412,0.394,1.227,1.183,1.639,1.578c0.009,0.57,0.017,1.701,0.017,2.27c0.403,0,1.219-0.009,1.622-0.009    c1.24-7.203,1.236-3.14,2.121-13.342c1.017-3.41,0.5-7.013,0.798-10.51c0.666-1.929,0.745-3.971,0.85-5.987    c1.981-0.017,3.98-0.017,5.987-0.061c0.738,15.014,3.226,81.388,5.452,98.881c2.794-5.344,3.327-18.194,3.313-23.046    c0.526,0.92,1.061,1.841,1.604,2.779c1.005,8.595,1.291,4.766,1.955,12.124c0.412-0.386,1.236-1.166,1.657-1.56    c0.07-1.131,0.167-2.253,0.29-3.375c3.077-10.573,4.023-80.044,5.303-85.767c11.203-0.333,22.415-0.307,33.618-0.026    c2.519,9.333-0.185,1.64,3.165,10.651c1.008-0.035,2.025-0.07,3.059-0.105c3.706,11.86,4.661,36.592,6.136,41.086    c0.237,3.743-0.228,7.618,1.324,11.159c1.832-0.973,3.532-4.164,5.768-2.27c0.311,1.769,1.139,5.743,1.674,7.74    c0.096,1.99,0.052,4.006,0.342,5.987c0.955,1.779,3.182,1.078,4.839,1.35c2.515,9.18,4.175,17.629,4.865,22.318    c3.942-2.424,4.424-5.052,6.049-11.527c1.105-1.981,2.621-3.682,4.252-5.251c-0.009-1.131-0.009-2.262,0.009-3.384    c0.386,0.377,1.149,1.131,1.534,1.508c0.333,1.797,0.754,3.577,1.21,5.365c0.359-0.386,1.087-1.166,1.446-1.552    c0.649-2.376,1.403-4.716,2.183-7.048c0.316,0.377,0.947,1.148,1.262,1.525c1.645,7.111,0.322,3.568,2.06,21.065    c0.429-0.395,1.271-1.175,1.692-1.56c0.026-1.999,0.07-3.997,0.21-5.987c1.481-4.83,0.263-9.949,0.868-14.902    c1.639-6.285,0.123-12.877,0.877-19.285c1.683-7.451,0.07-15.218,0.877-22.792c1.674-7.451,0.07-15.227,0.868-22.8    c1.219-3.62,0.596-7.495,0.684-11.229h4.979c2.486,11.696-0.075,13.584,1.867,20.004c0.438,4.076-0.456,8.31,0.859,12.281    c0.71,13.915,2.152,15.948,2.875,21.74c0.403,0.395,1.201,1.192,1.604,1.587c2.183-6.047-0.403-11.103,3.024-22.283    c0.316,0,0.964-0.009,1.289-0.009c0.07,1.339,1.748,15.516,3.112,20.688c3.189-6.785,3.21-47.072,3.2-54.051    c9.432-0.307,18.882-0.272,28.323,0.026c0.079,1.105,0.202,2.297,0.833,3.27c1.219-0.359,1.613-2.13,1.201-3.226    c0.684,0,2.042,0.017,2.726,0.017c0.193,1.701,0.421,3.401,0.912,5.049c0.745,6.11-0.754,12.422,0.877,18.417    c0.622,4.944-0.64,10.081,0.885,14.902c0.438,4.076-0.464,8.31,0.859,12.272c0.587,5.786-0.649,11.747,1.157,17.392    c0.342,0.359,1.017,1.087,1.35,1.455c0.973-1.806,2.025-3.576,3.296-5.207c2.899,9.94,3.548,20.233,4.146,30.129    c2.753-4.301,1.495-7.983,6.198-43.26c1.07-1.122,2.156-2.227,3.261-3.331c1.546-13.203,1.281-18.245,4.804-28.139    c0.719,1.183,1.42,2.384,2.139,3.594c6.049,34.545,2.934,63.483,10.432,89.607c-0.114,5.067,1.359,9.993,1.052,15.06    c-0.079,2.016,0.035,4.059,0.719,5.978c0.359,6.487,0.088,12.991,0.131,19.496c-0.026,3.813,1.113,7.53,1.017,11.361h1.639    c0.973-2.533,1.026-5.233,0.991-7.898c-0.096-2.682,0.728-5.26,0.842-7.907c0.149-3.305-0.272-6.627,0.342-9.897    c1.052-4.874,0.254-9.879,0.719-14.806c1.306-3.962,0.421-8.188,0.859-12.264c1.069-3.103,0.631-6.426,0.885-9.634    c0.71-2.034,0.736-4.199,0.763-6.329c0.535-0.92,1.087-1.841,1.657-2.753c0.009,0.693,0.009,2.078,0.009,2.77    c0.421,0.394,1.254,1.192,1.674,1.595c1.881-6.653,1.973-16.337,2.025-17.208c1.324-3.962,0.421-8.188,0.868-12.273    c1.508-4.821,0.263-9.949,0.885-14.902c1.534-5.119,0.21-10.537,0.868-15.779c1.438-4.777,0.43-9.836,0.684-14.736l0.579,0.009    c4.58,20.94-1.764,21.194,8.003,57.654c0.035,3.743,0.315,7.477,1.14,11.133c0.771,1.227,1.56,2.446,2.375,3.664    c2.187-18.959,0.397-16.093,1.254-24.413c1.525-5.119,0.228-10.537,0.876-15.779c1.525-5.119,0.219-10.537,0.876-15.779    c1.482-5.155,0.351-10.607,0.728-15.884c3.781-1.853,5.985-19.261,6.241-23.449c11.896-0.298,23.809-0.289,35.704,0    c0.018,2.314-0.044,4.69,0.789,6.899c1.385,15.795,1.043,17.456,1.034,20.679c0.438-0.386,1.297-1.14,1.727-1.525    c0.313-2.188-0.001-0.959,1.21-4.953h1.157c7.495,34.264,1.885,96.567,10.537,107.568c4.66-9.896,5.508-48.83,5.75-50.764    c0.339-1.036,7.792-66.458,7.846-67.323h0.719c0.315,5.479-0.815,11.133,0.701,16.48c0.219,3.217-0.175,6.522,0.833,9.634    c0.096,1.35,0.175,2.709,0.263,4.076c1.113,1.78,2.262,3.55,3.349,5.356c0.07,1.85,0.202,3.717,0.806,5.487    c0.237,3.208-0.21,6.539,0.877,9.643c0.438,4.076-0.456,8.301,0.868,12.264c0.64,5.233-0.666,10.659,0.868,15.779    c0.666,5.531-0.693,11.238,0.877,16.656c0.617,10.342-0.612,22.781,0.868,27.175c0.123,1.99,0.167,3.989,0.21,5.987    c0.429,0.394,1.28,1.183,1.7,1.578c3.526-23.595,3.006-33.165,5.417-44.234l0.526,0.026c2.215,9.395,0.757,4.828,3.042,12.623    c0.377-0.377,1.14-1.14,1.517-1.516c2.464-9.857,5.395-72.486,5.408-73.354l0.71,0.009c0.044,0.447,0.131,1.341,0.167,1.779    c0.605-0.018,1.814-0.07,2.411-0.088c2.367,8.449,6.032,43.591,6.075,43.725c0.517,4.348-1.026,10.134,3.296,12.982    c12.367-46.276,9.589-65.188,12.904-92.683c11.51-0.228,23.028-0.228,34.547-0.018c0.316,1.131,0.649,2.253,1.008,3.375    c0,0.001,5.242,57.934,5.242,57.935c2.528,35.686-1.458,8.139,4.62,49.809c0.412,0.395,1.227,1.175,1.639,1.56    c0.117-0.869,4.225-26.319,4.576-34.135c3.883,7.547,1.348,7.067,5.198,13.465c0.955-0.395,1.964-0.64,3.016-0.745    c0.631,0.833,1.245,1.701,1.832,2.604c0.465,0.044,1.394,0.131,1.859,0.175c0.631-1.087,1.262-2.165,1.92-3.243    c1.331-5.87,3.349-16.952,3.752-22.327l0.71,0.018c0.324,6.355-0.877,12.877,0.666,19.11c0.64,5.242-0.666,10.659,0.885,15.788    c0.281,3.498-0.272,7.109,0.842,10.511c0.105,1.525,0.175,3.059,0.263,4.593h1.683c0.03-0.868,2.321-25.659,4.655-35.354    c0.359,0.368,1.069,1.113,1.42,1.481c0.018,2.183,0.026,4.409,0.763,6.496c0.184,2.928-0.088,5.943,0.894,8.766    c0.257,4.097-0.504,3.463,2.165,21.81c1.771-3.524,1.604-7.469,1.744-11.299c1.411-4.55,0.307-9.362,0.868-14.026    c1.604-5.996,0.149-12.299,0.877-18.409c1.63-6.285,0.114-12.877,0.868-19.285c1.587-5.698,0.158-11.711,0.868-17.532    c1.56-6.399,0.324-13.114,0.693-19.645c0.429-0.377,1.28-1.14,1.709-1.525c-0.026,2.393-0.105,4.856,0.728,7.153    c0.193,2.919-0.096,5.943,0.885,8.757c0.456,4.076-0.473,8.319,0.877,12.281c0.447,4.076-0.473,8.31,0.877,12.264    c0.368,3.796-0.386,7.723,0.868,11.405c1.036,17.235,1.642,16.652,2.972,21.792c0.43,0.438,1.297,1.306,1.727,1.736    c0.815-1.21,1.63-2.419,2.446-3.638c2.923-13.017,5.323-15.63,6.426-33.039c1.186-4.545,6.856-57.745,6.873-58.619    c13.114-0.333,26.237-0.298,39.351,0c-0.07,25.539-0.242,25.33,0.701,27.92c0.701,5.83-0.737,11.843,0.868,17.541    c0.622,4.944-0.64,10.072,0.885,14.902c0.491,4.374-0.517,8.898,0.859,13.158c0.545,12.053,0.783,6.687,1.964,16.629    c1.858,1.052,3.901,1.981,5.076,3.892c10.959-1.859,6.983-29.405,13.724-64.092v-42.917c-0.174-0.927-0.341-1.93-0.488-3.102    c-0.544-0.947-1.069-1.885-1.578-2.823c-3.578-19.889-0.465-3.857-2.901-38.229c-0.302-0.87-2.483-19.751-2.542-20.46    c-0.701-0.894-1.359-1.788-2.051-2.665c-2.62,8.857-4.816,32.1-4.97,37.869c-0.885-1.192-1.736-2.411-2.56-3.62v-1.63    c-0.991-1.744-1.946-3.489-2.928-5.216c-0.438,0.517-1.306,1.543-1.745,2.06c-0.955,0-1.885-0.009-2.796-0.009    c-0.71-0.71-1.394-1.42-2.069-2.13c-0.827-5.187-0.922-3.934-1.999-19.093c-1.271-3.673-0.465-7.609-0.877-11.405    c-1.201-3.384-0.535-7.013-0.877-10.51c-0.824-2.7-0.728-5.54-1.166-8.293c-0.21-0.359-0.622-1.078-0.833-1.438    c-0.622-3.147-0.456-6.373-0.631-9.555c-1.056-2.973-1.705-15.787-1.762-16.656c-1.704-4.872-1.165-33.567-5.321-44.54    l-0.377,0.009c-0.237,0.579-0.701,1.736-0.938,2.323c-0.401,3.921-11.044,109.351-11.711,112.521l-0.71,0.009    c-0.251-7.498,0.009-3.82-1.201-9.651h-1.236c-1.98,7.546-1.844,6.61-2.121,9.073c-0.254,0.622-0.771,1.867-1.026,2.481    c-1.078-0.421-2.121-0.85-3.156-1.271c-3.451,12.972-2.154,26.149-5.549,58.154c-5.163,0.21-10.326,0.272-15.472,0.009    c-2.367-4.585,0.263-10.046-1.674-14.788c-5.048-49.685-2.675-22.48-9.038-64.474c-0.368,0.368-1.096,1.104-1.464,1.473    c-3.2,24.397-3.796,53.375-3.866,54.244c-0.902,2.444-0.812,2.981-0.71,23.546c-4.628,0.21-9.257,0.202-13.877,0.009    c-0.062-1.098-0.753-10.145-3.41-19.96c-1.609-6.088-2.241-34.338-5.531-45.399c-0.386,0.403-1.157,1.218-1.543,1.622    c0,0.002-2.428,17.821-2.428,17.821c-1.87,7.96-2.043,7.751-2.209,12.123c-0.894,1.359-1.823,2.682-2.779,3.989    c-1.026-0.78-2.016-1.552-3.024-2.297c-4.94,16.27-1.404,25.036-3.831,32.049c-1.745,0.009-3.48,0.018-5.198,0.07    c-0.149-4.059,0.605-8.249-0.693-12.176c-0.596-4.664,0.579-9.494-0.877-14.026c-0.543-4.365,0.509-8.897-0.868-13.149    c-0.245-2.98-0.219-5.97-0.184-8.959h-0.798c-0.097,1.525-0.175,3.051-0.281,4.585c-1.043,3.042-0.675,6.285-0.666,9.441h-0.885    c-0.454-35.146-2.288-72.71-9.792-140.651c-0.693-1.175-1.359-2.332-2.043-3.489c-1.043,1.411-2.042,2.84-2.954,4.33    c-0.744,4.308-0.526,3.106-1.56,7.153c-3.447,12.335-8.898,66.727-8.898,66.727c-0.359,3.498,0.307,7.135-0.877,10.519    c-2.297,22.912,0.443,23.804-2.604,35.932c-0.184,2.639-0.044,5.347-0.894,7.89c-0.228,3.051-0.158,6.101-0.368,9.152    c-1.499,4.83-0.237,9.949-0.877,14.902c-1.569,5.409-0.167,11.124-0.877,16.647c-0.517,1.683-0.728,3.427-0.912,5.172    c-6.645,0.202-13.289,0.254-19.925-0.044c0.064-10.529-0.526-4.443-0.973-12.334l-0.701,0.009    c-0.965,7.442-1.078,2.9-0.973,12.272c-1.183-0.009-2.349-0.009-3.506,0c0.078-9.359-1.521-16.3-2.042-19.811    c-3.15,1.808-4.963,16.633-5.119,19.899c-5.987,0.254-11.974,0.228-17.953-0.035c-2.68-8.301,0.155-12.807-1.885-20.022    c-0.649-4.944,0.631-10.072-0.877-14.902c-0.28-3.629-0.088-7.276-0.35-10.905c-0.735-2.102-1.517-17.095-2.06-19.715    c-1.139-4.529-1.144-4.594-1.289-6.811c-0.833-1.219-1.674-2.428-2.533-3.62c-0.026-0.394-0.088-1.192-0.114-1.587    c-1.131-2.095-2.358-4.129-3.813-6.005c-0.894,0.955-1.762,1.911-2.63,2.875c-0.491,0-1.473-0.009-1.964-0.009    c-0.281,0.579-0.833,1.744-1.113,2.323c-0.044,2.393,0.018,4.839-0.78,7.127c-0.517,8.012,0.14,16.051-0.359,24.054    c-1.709,4.69,0.307,9.827-1.403,14.517c-0.175,2.288-0.202,4.585-0.193,6.881c-0.43,0.377-1.297,1.131-1.727,1.516    c0.009-2.682,0.245-5.453-0.71-8.012c-0.596-4.655,0.57-9.485-0.877-14.026c-0.438-5.382,0.079-10.782-0.359-16.165    c-1.587-5.698-0.149-11.712-0.876-17.532c-1.394-4.251-0.333-8.784-0.868-13.149c-0.903-2.358-0.754-4.909-0.728-7.381    c-0.429-0.368-1.297-1.122-1.727-1.49c-0.272,4.699,0.71,9.564-0.701,14.131c-0.421,3.787,0.385,7.723-0.877,11.396    c-0.552,4.366,0.526,8.898-0.877,13.149c-0.368,4.506,0.018,9.029-0.35,13.535c-1.438,4.769-0.421,9.818-0.701,14.709h-0.868    c-0.009-2.867,0.289-5.829-0.71-8.573c-0.245-3.34-0.123-6.688-0.351-10.028c-1.349-3.85-2.513-33.865-5.347-39.938    c-4.096,0.324-4.685-1.352-7.083-16.191c-0.859-3.445-0.482-7.022-0.675-10.528c-5.99-19.969-5.779-31.074-8.74-43.006    c-0.412,0.377-1.236,1.14-1.648,1.516c-4.042,68.84-13.256,161.005-13.438,161.874c-6.241,0.263-12.483,0.281-18.724-0.018    c-2.084-7.236,0.044-0.063-2.472-11.072c-1.704,1.184-2.333,2.852-3.27,11.072c-6.54,0.281-13.088,0.272-19.627,0.035    c-0.289-0.605-0.859-1.815-1.148-2.419c-0.438-5.567,0.754-11.308-0.745-16.752c-0.657-4.953,0.623-10.081-0.885-14.902    c-0.316-3.918-0.044-7.863-0.351-11.781c-1.175-3.384-0.543-7.013-0.868-10.519c-1.201-3.375-0.543-7.013-0.877-10.519    c-1.105-3.094-0.622-6.426-0.885-9.634c-0.991-2.823-0.675-5.838-0.885-8.766c-0.64-1.823-0.737-3.752-0.807-5.654    c-0.412-0.377-1.236-1.122-1.648-1.49c-0.023,1.517,0.6,9.192-2.016,20.118c-2.092-3.749-2.373-11.288-2.568-14.727    c-0.728-2.095-0.719-4.33-0.728-6.513c-0.412-0.377-1.236-1.122-1.648-1.49c-0.017,2.384,0.105,4.839-0.745,7.118    c-1.625,13.049-1.923,57.246-2.113,60.871c-1.254,3.524,0.009,7.513-2.086,10.808c-3.055-13.191-3.982-41.883-4.041-42.752    c-0.195-0.562-2.542-23.345-2.577-24.352h-0.684c-0.074,0.87-1.059,13.181-1.639,14.709c-0.324,3.927-0.052,7.863-0.359,11.79    c-1.806,5.26,0.403,10.993-1.403,16.261c-0.333,4.444-0.14,8.906-0.175,13.359l-0.85-0.026c-0.009-2.402-0.035-4.804-0.21-7.197    c-1.955-6.715,0.561-13.929-1.394-20.644c-0.421-5.093,0.061-10.212-0.359-15.297c-1.534-5.119-0.202-10.546-0.877-15.779    c-1.341-3.962-0.386-8.196-0.868-12.272c-1.473-4.856-0.368-10.02-0.745-15.007c-0.281-0.587-0.85-1.753-1.131-2.332l-0.342-0.026    c-2.383,6.384-1.846,9.872-4.725,15.043c-1.087-0.053-2.156-0.097-3.217-0.14c-0.297,2.566-0.568,6.574-3.226,12.614    c-1.078-0.456-2.139-0.912-3.173-1.385c-0.903,1.043-1.753,2.121-2.568,3.226c-1.541,14.346-1.612,25.276-6.522,59.863    c-0.64,1.394-1.613,2.568-2.902,3.384c-0.643-9.977-2.268-14.232-2.901-20.381c-0.395-0.368-1.192-1.113-1.587-1.482    c-3.995,25.967-3.614,31.519-5.628,38.86l-0.526,0.009c-5.004-29.024-4.245-32.066-6.592-40.692    c-1.964,0.307-3.165,1.56-3.463,3.506c-1.455,1.648-2.858,3.34-4.068,5.172c-0.113,0.869-5.441,26.261-5.242,38.194    c-7.206,0.316-14.42,0.281-21.626,0c-1.59-6.96-1.588-22.528-4.032-40.043c-2.449,4.247-1.567,9.163-3.401,17.199h-0.622    c-0.096-1.999-0.167-4.024-0.798-5.943c-0.193-2.463-0.228-4.935-0.403-7.398c-0.214-0.596-2.541-21.185-2.551-21.389    c-0.342-0.368-1.034-1.096-1.376-1.464c-2.624,7.092-1.98,15.125-3.936,40.762c-0.943,2.679-1.212,14.307-2.463,18.251    l-0.579-0.009c-0.263-0.587-0.797-1.762-1.069-2.349c-0.044-2.393,0.018-4.839-0.798-7.127c-0.482-4.076,0.456-8.31-0.877-12.264    c-0.543-4.374,0.526-8.906-0.876-13.149c-0.272-3.629-0.088-7.276-0.351-10.905c-2.209-6.347,1.236-13.623-2.226-19.618    c-1.659,10.114-0.922,6.007-1.289,12.115c-1.324,3.962-0.395,8.196-0.868,12.272c-1.648,4.401,0.228,9.24-1.394,13.64    c-0.263,3.27-0.202,6.557-0.184,9.835l-0.859,0.009c0-2.7,0.009-5.409-0.202-8.091c0,0-1.894-14.814-3.559-26.64    c-1.025,2.161-2.494,6.353-3.419,11.457c-0.71,1.201-1.42,2.411-2.148,3.603c-3.406-7.194-4.001-15.55-4.295-17.699    c-5.625-12.505-4.562-25.342-7.67-33.671h-0.403c-3.503,9.782,0.435,1.884-6.005,38.317c-0.184,0.359-0.552,1.087-0.728,1.446    c-0.324,1.727-0.57,3.463-0.841,5.198c-0.947,3.717-0.395,7.583-0.719,11.361c-1.289,3.664-0.473,7.6-0.885,11.396    c-0.594,1.9-1.634,10.122-1.718,10.993c-1.122,0.745-2.244,1.473-3.349,2.218c-0.386,5.626,0.13,1.269-1.175,7.714    c-3.953,0.175-7.907,0.175-11.852,0.044c-0.105-2.051-0.158-4.129-0.842-6.075c-0.412-3.796,0.395-7.732-0.885-11.396    c-0.333-3.498,0.307-7.127-0.859-10.51c-0.491-6.548,0.123-13.123-0.368-19.671c0,0-5.516-54.514-8.845-67.306h-1.473    c0.015,4.792-0.944,14.581-1.595,16.463c-0.351,3.498,0.307,7.136-0.877,10.519c-0.491,4.076,0.465,8.31-0.877,12.272    c-0.491,4.076,0.456,8.31-0.877,12.272c-0.28,3.629-0.079,7.276-0.35,10.905c-1.262,3.673-0.465,7.609-0.868,11.396    c-1.289,3.664-0.473,7.6-0.877,11.396c-1.289,3.664-0.482,7.6-0.877,11.387c-1.429,4.243-0.351,8.784-0.894,13.149    c-0.517,1.683-0.728,3.427-0.912,5.163c-3.629,0.123-7.249,0.123-10.861,0.009c-0.359-1.131-0.719-2.253-1.078-3.357    c-0.554-15.475,0.663-21.354-0.815-25.474c-0.498-7.528-0.096-59.18-5.654-78.719c-6.429-1.051-3.223-11.691-7.057-21.424    l-0.438,0.018c-4.443,43.319-2.365,60.076-3.857,78.211c-1.63,4.401,0.21,9.231-1.385,13.64c-0.184,2.463-0.219,4.935-0.395,7.399    c-0.666,2.007-0.736,4.138-0.824,6.241c-0.245,0.64-0.745,1.928-0.99,2.568c-0.351-0.359-1.061-1.096-1.411-1.455    c-0.134-6.652-0.225-0.761-1.166-13c-1.403-3.839,0.079-8.056-1.359-11.887c-0.342-4.436-0.149-8.897-0.184-13.342h-1.622    c-0.042,0.869-1.142,13.049-1.709,14.709c-0.246,3.34-0.114,6.688-0.351,10.028c-1.402,4.243-0.342,8.775-0.877,13.14    c-1.473,4.541-0.281,9.371-0.885,14.026c-0.999,2.761-0.728,5.724-0.71,8.599c-0.438-0.009-1.297-0.009-1.736-0.018    c-0.091-1.768-2.814-61.555-2.814-61.555c-0.038-0.109-5.456-50.812-6.908-56.26c-0.359,0.386-1.078,1.148-1.446,1.534    c-1.054,4.726-0.995,2.579-1.157,9.371c-0.298-0.026-0.885-0.07-1.183-0.096c-0.938-1.324-1.928-2.612-2.919-3.892    c-2.823,14.314-4.439,36.549-5.97,44.873c-0.184,0.359-0.552,1.078-0.736,1.438c-0.281,1.359-0.526,2.735-0.754,4.103h-0.657    c0.028-7.733-1.59-17.163-2.849-24.896c-0.517,0.877-1.026,1.762-1.516,2.647c-0.018,2.972,0.315,6.049-0.71,8.906    c-0.605,4.655,0.561,9.485-0.876,14.026c-0.754,6.11,0.71,12.404-0.868,18.409c-0.131,1.63-0.202,3.279-0.254,4.918    c-0.544,0.938-1.087,1.876-1.613,2.814c-0.987,9.186-0.327-1.6-1.14,11.931c-1.245,3.673-0.473,7.6-0.859,11.396    c-1.201,3.34-0.657,6.934-0.701,10.397c-6.732,0.254-13.456,0.298-20.179,0.009c-0.044-3.471,0.473-7.057-0.684-10.405    c-0.649-4.944,0.622-10.072-0.885-14.894c-0.307-3.927-0.052-7.863-0.351-11.782c-1.613-5.996-0.149-12.316-0.868-18.435    c-1.339-5.048-0.518-5.014-3.603-14.981c-1.154-4.75-0.731-4.479-2.621-9.59c-0.351,0.368-1.069,1.105-1.429,1.473    c-3.59,28.719-2.637,24.356-5.26,29.112c-0.601,4.918-1.642,5.918-2.831,13c-0.71,1.183-1.403,2.358-2.113,3.533    c-0.281-0.684-0.833-2.051-1.113-2.735c-0.247-4.495-0.408-4.871-1.166-8.196c-0.386,0-1.175,0-1.569-0.009    c-0.044,1.359-0.105,2.717-0.158,4.076c-3.067-6.436-0.91-7.799-1.823-18.286c-1.446-4.541-0.272-9.371-0.868-14.026    c-1.026-2.849-0.71-5.908-0.745-8.871c-0.289-0.587-0.868-1.744-1.166-2.332h-0.473c-0.83,6.893-1.628,7.466-1.876,15.209    c-0.421-0.377-1.262-1.131-1.683-1.499c-0.009-2.306-0.035-4.602-0.193-6.89c-1.183-3.384-0.535-7.013-0.877-10.51    c-1.192-3.384-0.535-7.022-0.868-10.519c-1.201-3.384-0.543-7.022-0.885-10.519c0,0-3.515-26.665-3.515-26.666    c-0.324-0.368-0.982-1.096-1.306-1.455c-2.09,10.391-0.875,47.421-5.628,75.94c-0.395-0.377-1.175-1.122-1.56-1.499    c-2.507-9.819-2.672-28.963-2.717-29.831c-0.561-0.894-1.113-1.788-1.657-2.682c-0.07,2.13-0.053,4.313-0.806,6.347    c-0.412,3.787,0.395,7.723-0.859,11.396c-0.71,5.531,0.675,11.247-0.877,16.656c-0.473,5.961,0.096,11.957-0.368,17.918    c-1.613,5.996-0.123,12.299-0.877,18.409c-1.446,4.532-0.281,9.362-0.868,14.017c-1.096,3.051-0.701,6.32-0.701,9.485h-5.251    c-0.333-5.488,0.78-11.133-0.701-16.489c-0.719-5.531,0.692-11.256-0.885-16.656c-0.543-4.365,0.508-8.898-0.868-13.149    c-0.219-3.051-0.158-6.11-0.368-9.152c-0.622-2.007-0.771-4.103-0.947-6.171c-3.738-17.029-1.37-12.706-7.022-45.645    c-4.711-15.28-4.495-46.356-6.978-58.128c-0.324-0.359-0.964-1.096-1.28-1.464c-0.28,1.481-0.544,2.972-0.85,4.444    c-0.085,0.868-3.823,36.378-5.198,42.901c-1.571,7.218-1.593,19.441-2.788,22.87c-0.351,3.498,0.307,7.127-0.877,10.51    c-0.491,4.076,0.465,8.31-0.877,12.272c-0.596,4.655,0.579,9.485-0.877,14.026c-0.342,4.216-0.009,8.451-0.351,12.658    c-1.464,4.541-0.272,9.371-0.885,14.026c-0.561,1.727-0.719,3.533-0.868,5.33c-0.368-0.351-1.105-1.052-1.473-1.411    c-3.32,19.616-1.334,18.132-1.867,29.296c-13.421,0.193-26.842,0.28-40.254-0.018c-0.494-1.729-3.729-21.553-4.655-33.583    c-1.297-3.559-0.026-7.46-1.359-11.01c-0.193-2.761-0.184-5.523-0.368-8.275c-1.578-5.707-0.14-11.711-0.877-17.532    c-0.529-1.612-1.765-12.284-1.858-13.158c-1.105-4.006-0.342-8.188-0.763-12.264c-1.657-6.566-0.105-13.465-0.885-20.162    c-1.639-6.566-0.105-13.465-0.877-20.162c-1.613-5.987-0.131-12.29-0.877-18.4c-1.455-4.541-0.28-9.371-0.868-14.026    c-0.85-2.288-0.763-4.742-0.789-7.127c-0.281-0.587-0.824-1.753-1.096-2.332h-0.403c-0.551,5.654-1.974,21.699-6.867,143.007    v84.684c1.97-18.939,4.281-41.148,4.281-41.149C596.116,1138.092,595.975,1135.419,595.967,1132.815z"
   id="path69" />
	</g>
</g>
<path
   style="fill:#3771c8;stroke-width:1.18157"
   d="m 461.99545,1635.7735 c -14.008,-2.7357 -29.00311,-14.5339 -34.93228,-27.4849 -1.59605,-3.4862 -3.41184,-10.2669 -4.03509,-15.0682 -1.57257,-12.1144 -1.56129,-829.44749 0.0116,-840.55774 2.84121,-20.06921 17.10348,-36.38305 36.14322,-41.34227 10.08335,-2.62638 84.25167,-2.59715 94.43168,0.0372 18.44434,4.77299 32.36524,19.87006 35.88656,38.91858 1.73169,9.36762 1.82761,836.30653 0.0981,845.57373 -3.74929,20.0894 -19.85686,36.1876 -40.03828,40.0149 -7.69729,1.4598 -80.00937,1.3844 -87.56548,-0.091 z"
   id="path2079" /><path
   style="fill:#3771c8;stroke-width:1.18157"
   d="m 1460.9673,1635.4227 c -13.1697,-3.1995 -25.2444,-12.0488 -31.6481,-23.194 -7.2352,-12.5924 -6.7494,20.8666 -6.4168,-441.94 l 0.3035,-422.35233 2.7004,-6.6789 c 5.2417,-12.96466 15.4979,-23.21557 28.4311,-28.4167 6.4307,-2.58612 8.2375,-2.70099 48.6248,-3.09132 29.6261,-0.28633 43.8545,0.0112 48.4445,1.01301 17.6476,3.85181 32.2745,17.34387 37.13,34.24925 1.6991,5.91584 1.8466,46.30505 1.573,430.74509 l -0.3018,424.2171 -4.4497,9.0033 c -7.0314,14.2269 -19.7918,24.0328 -34.9989,26.8955 -9.2364,1.7387 -81.8882,1.373 -89.392,-0.45 z"
   id="path2081" /><path
   style="fill:#3771c8;stroke-width:3.342"
   d="m 243.96571,1548.3161 c -13.78573,-9.3755 -41.79934,-33.7323 -62.25247,-54.1261 -66.88182,-66.6879 -106.97022,-141.0638 -127.164866,-235.9285 -8.460991,-39.7456 -8.460991,-130.6961 0,-170.4418 13.155315,-61.7973 39.233312,-123.4165 73.486456,-173.63967 22.27871,-32.66585 83.757,-94.03176 116.76638,-116.55295 l 25.90047,-17.67102 v 392.88454 c 0,216.0865 -0.37597,392.803 -0.8355,392.7033 -0.45952,-0.1 -12.11473,-7.8522 -25.90047,-17.2278 z"
   id="path2083" /><path
   style="fill:#3771c8;stroke-width:3.342"
   d="m 288.1796,1020.1443 0.90306,-548.92286 9.29945,-30.07796 c 21.5491,-69.69796 65.40292,-138.60786 123.64093,-194.28376 38.8528,-37.14353 72.82949,-60.05512 135.27216,-91.21847 311.80936,-155.61507549 590.3862,-155.1517445 903.262,1.50232 60.9189,30.50154 99.746,57.73108 140.2945,98.38886 50.8546,50.99175 88.958,109.92589 109.2017,168.90107 17.9488,52.28967 17.7176,44.2648 17.7388,615.7628 l 0.02,528.8708 h -61.827 -61.8269 v -532.3462 c 0,-584.41265 1.2515,-547.40011 -20.0564,-593.18027 -29.4924,-63.36475 -98.5349,-135.70807 -168.942,-177.01886 -37.5401,-22.02637 -157.1404,-65.68121 -225.4091,-82.2757 -61.6989,-14.99752 -96.1693,-19.40575 -165.4288,-21.15578 -118.17065,-2.9859 -211.33277,15.79195 -354.25159,71.40331 -77.78709,30.26784 -118.70862,57.38038 -172.58497,114.34605 -36.82825,38.94001 -63.37475,79.82696 -76.71834,118.16166 l -9.61197,27.61411 -0.0447,537.22588 -0.0447,537.2258 h -61.89449 -61.89449 z"
   id="path2085" /><path
   style="fill:#3771c8;stroke-width:3.342"
   d="M 1741.1799,1172.8856 V 779.81094 l 12.5325,7.55429 c 65.873,39.70671 132.0946,113.87413 167.8036,187.93791 31.6428,65.63016 44.762,124.77746 44.6006,201.07946 -0.1997,94.377 -23.8624,170.726 -78.2645,252.5241 -31.5161,47.3873 -99.0206,111.9519 -139.1527,133.0925 l -7.5195,3.9611 z"
   id="path2087" /><path
   style="fill:#214478;stroke-width:1.671"
   d="m 1083.9395,1272.2582 c -0.6735,-13.44 -2.2935,-29.6069 -3.5999,-35.9265 -1.3064,-6.3196 -3.1682,-22.3934 -4.1374,-35.7196 -2.5401,-34.9265 -3.5841,-43.0296 -5.9629,-46.2828 -1.8848,-2.5777 -2.3173,-2.1698 -3.9556,3.7311 -1.0116,3.6439 -1.8481,8.8811 -1.8589,11.6382 -0.01,2.7572 -1.0865,7.0581 -2.3905,9.5576 -1.3039,2.4996 -3.345,13.4028 -4.5356,24.2295 l -2.1648,19.6849 -1.4331,-11.697 c -1.4932,-12.1881 -3.6079,-16.7025 -6.0062,-12.8218 -1.3554,2.1931 -2.3836,-8.3642 -4.5692,-46.9164 l -1.1131,-19.6342 h -17.0982 -17.0983 l -1.3667,24.6472 c -1.2322,22.2206 -1.5264,23.8657 -2.9886,16.71 -0.892,-4.3655 -2.16,-7.9373 -2.8178,-7.9373 -1.73394,0 -3.1823,6.3969 -3.4051,15.039 l -0.19387,7.5195 -1.41398,-5.8485 c -0.7777,-3.2167 -1.86592,-13.368 -2.41828,-22.5585 -1.46404,-24.3596 -2.13087,-27.5714 -5.72421,-27.5714 -3.10029,0 -3.64342,5.8923 -6.00703,65.1689 -0.89665,22.487 -1.38436,28.6075 -1.9307,24.2295 -1.112,-8.9109 -2.24437,-12.5325 -3.91852,-12.5325 -0.90153,0 -1.63916,1.2783 -1.63916,2.8407 0,2.1371 -0.47488,2.3658 -1.91735,0.9233 -2.33097,-2.331 -7.29088,3.2575 -9.02566,10.1694 -1.96044,7.811 -3.66322,6.4065 -5.77006,-4.7593 -1.33259,-7.0625 -2.84346,-10.8451 -4.33178,-10.8451 -2.12555,0 -3.14111,-2.5127 -4.38988,-10.8615 -0.28546,-1.9085 -2.00578,-3.558 -4.01057,-3.8456 -3.07471,-0.441 -3.64455,-1.9974 -4.58851,-12.5325 -2.14614,-23.9521 -4.71283,-37.9293 -6.9651,-37.9293 -1.19983,0 -2.67696,-2.2559 -3.28254,-5.013 l -1.10103,-5.013 h -17.30011 c -15.05233,0 -17.40582,0.3799 -18.11375,2.9242 -0.4475,1.6083 -1.32115,16.8353 -1.94144,33.8377 -0.62029,17.0024 -1.69892,35.4252 -2.39695,40.9395 -1.18659,9.3738 -1.35341,9.6704 -2.56448,4.5604 -2.01234,-8.4907 -4.19466,-8.1002 -4.3116,0.7717 -0.21594,16.383 -2.77141,1.2987 -3.87578,-22.8776 -0.60873,-13.3262 -1.56974,-32.2646 -2.13557,-42.0853 l -1.02879,-17.8559 7.31836,-0.5251 c 5.76724,-0.4138 7.45093,-1.2335 7.94383,-3.8671 0.34401,-1.8381 1.29475,-3.765 2.11275,-4.2821 0.818,-0.517 2.20043,-8.4248 3.07207,-17.5729 0.87164,-9.1481 2.7472,-23.2986 4.16791,-31.4456 1.42072,-8.1469 2.58312,-17.3903 2.58312,-20.5408 0,-3.3934 0.68112,-5.3073 1.67099,-4.6955 0.91905,0.568 1.6718,2.6802 1.67277,4.6938 0.003,5.2987 8.33915,38.4668 10.13358,40.3176 0.92564,0.9548 2.32193,-0.675 3.57899,-4.1775 l 2.06122,-5.743 1.17885,7.5195 c 0.64837,4.1357 1.23459,11.0913 1.30271,15.4567 0.0681,4.3655 0.78537,7.9373 1.59387,7.9373 0.80851,0 2.07293,-9.5874 2.80983,-21.3052 1.26851,-20.1713 1.40608,-20.7716 2.5846,-11.2793 0.68463,5.5143 1.75255,18.8986 2.37317,29.7428 0.78301,13.6819 1.71567,19.5219 3.04713,19.08 1.96902,-0.6536 3.20764,-9.5726 5.38785,-38.7968 1.36636,-18.315 2.7963,-16.4519 4.94895,6.448 1.07085,11.3917 3.28866,13.1627 4.48077,3.578 0.39231,-3.1542 1.08477,-0.6758 1.86749,6.684 2.40512,22.6148 2.29473,22.3162 8.69141,23.5162 3.18161,0.5968 8.41656,0.5915 11.63323,-0.012 5.22171,-0.9796 5.85474,-1.671 5.90679,-6.4522 0.10773,-9.8954 4.68743,-31.4342 7.64277,-35.9446 l 2.92851,-4.4695 1.10574,4.1616 c 0.60816,2.2888 2.07302,11.493 3.25524,20.4538 2.99073,22.6684 4.88437,21.4297 7.7208,-5.0504 1.3322,-12.4368 3.2398,-14.6479 4.5042,-5.2209 0.5007,3.7332 1.3622,7.2393 1.9143,7.7914 2.6005,2.6006 4.1435,-4.2126 6.7231,-29.6868 3.459,-34.1592 3.7504,-35.6406 6.7819,-34.4773 1.6814,0.6452 2.9194,-1.0452 4.1719,-5.6966 0.9796,-3.6377 2.4413,-6.614 3.2483,-6.614 0.8071,0 2.1709,-2.0679 3.0308,-4.5953 1.5512,-4.5592 1.5722,-4.5429 2.673,2.0888 1.1828,7.1255 4.3572,57.0564 4.3821,68.9287 0.01,3.9059 0.7669,7.1017 1.686,7.1017 0.9451,0 1.743,-5.2628 1.8368,-12.1147 0.1991,-14.5456 2.5351,-42.6118 2.9554,-35.5087 0.9797,16.5568 3.6346,47.746 4.5297,53.2144 2.2614,13.8153 4.2862,2.0467 5.2452,-30.4871 0.5466,-18.5428 1.6283,-34.1063 2.4038,-34.5856 0.7755,-0.4793 1.4101,2.1363 1.4101,5.8125 0,11.7084 4.7293,9.878 5.2401,-2.0282 0.3102,-7.2292 4.1478,34.2174 5.6215,60.7126 l 1.1978,21.5348 4.868,1.0692 c 2.6775,0.5881 7.8596,0.5638 11.5158,-0.054 5.7194,-0.9663 6.6795,-1.7443 6.8753,-5.5715 0.208,-4.0658 0.2908,-4.1172 0.9635,-0.5985 1.1008,5.758 14.1839,9.3984 20.1559,5.6084 2.8744,-1.8242 5.2298,-25.1649 14.7819,-146.48006 l 1.1841,-15.03898 3.1027,16.70998 c 1.7064,9.19049 4.2159,23.79916 5.5767,32.46376 1.7839,11.3591 3.4053,16.6213 5.8123,18.8638 1.836,1.7105 3.3399,4.0207 3.342,5.1337 0.01,4.906 5.0886,51.9545 5.6723,52.5382 0.8042,0.8042 2.2762,-15.8896 3.6872,-41.8153 0.59,-10.8393 1.3144,-19.4661 1.6098,-19.1707 0.2954,0.2955 1.3917,16.6814 2.4362,36.4132 1.0445,19.7318 2.2144,36.1914 2.5999,36.5769 2.0357,2.0356 2.8564,-3.7856 3.9967,-28.3462 0.9359,-20.159 1.842,-27.3759 3.5742,-28.4687 2.9044,-1.8323 5.9902,2.0178 8.1104,10.1191 2.0529,7.8445 5.0587,41.302 5.0658,56.389 0.01,13.4861 1.5974,15.5381 12.0106,15.49 7.7929,-0.036 9.0843,-1.3653 10.5269,-10.8359 0.9994,-6.5614 1.5621,-7.6376 2.6209,-5.013 0.7416,1.8381 1.4012,5.7858 1.4658,8.7727 0.1367,6.3213 4.478,7.6116 5.6222,1.671 l 0.7241,-3.7597 0.2276,3.7279 c 0.2731,4.4741 5.7979,6.2761 15.3246,4.9983 l 6.5402,-0.8772 -0.8067,9.4435 c -3.2,37.4588 -4.4982,48.1945 -7.6547,63.3013 -3.5737,17.104 -6.4918,21.0431 -6.4918,8.7634 0,-12.0011 -5.1886,-44.2114 -7.5012,-46.5668 -1.9416,-1.9775 -2.4174,-1.4762 -3.1723,3.342 -0.4885,3.1177 -1.3632,15.4439 -1.9438,27.3915 -0.5807,11.9476 -1.6292,26.2347 -2.3302,31.749 -1.1871,9.338 -1.3629,9.6533 -2.5629,4.5952 -2.6869,-11.326 -4.3561,-6.2235 -6.9697,21.3052 -0.9849,10.374 -1.3882,11.6018 -2.3418,7.1285 -0.6337,-2.9722 -1.2288,-11.331 -1.3226,-18.5752 -0.3176,-24.535 -3.6977,-66.0246 -5.562,-68.2709 -1.0197,-1.2286 -2.2268,-9.3611 -2.6824,-18.0721 -0.4557,-8.711 -1.3356,-15.8381 -1.9554,-15.8381 -1.2716,0 -7.8716,55.9148 -10.0715,85.3252 -0.7948,10.6265 -1.9949,22.251 -2.6667,25.8323 -1.1596,6.1811 -1.2987,6.303 -2.7422,2.4021 -0.8364,-2.2601 -2.2142,-19.5242 -3.0619,-38.3647 -2.1625,-48.0665 -3.7717,-63.498 -6.6216,-63.498 -0.7786,0 -1.7596,1.316 -2.1799,2.9243 -0.4203,1.6083 -0.8617,-1.5875 -0.9808,-7.1018 -0.3945,-18.2531 0.4156,-17.5454 -20.0832,-17.5454 h -17.8514 l -2.9832,11.2792 c -1.7808,6.7333 -3.8515,24.7488 -5.1376,44.6992 -1.1851,18.381 -2.3432,33.7959 -2.5738,34.2555 -0.2305,0.4595 -0.977,-2.1723 -1.6589,-5.8485 -0.6819,-3.6762 -2.4677,-13.3621 -3.9684,-21.5241 -1.5007,-8.1621 -2.74,-19.4413 -2.7541,-25.065 -0.041,-16.3569 -2.8311,-16.9619 -3.9559,-0.8578 -0.5388,7.7148 -1.6202,23.3058 -2.4031,34.6468 -0.9562,13.8503 -2.1396,21.0624 -3.6047,21.9679 -1.5254,0.9427 -3.0116,11.825 -4.9432,36.194 l -2.762,34.8461 z"
   id="path2176" /><path
   style="fill:#214478;stroke-width:1.671"
   d="m 699.58666,1256.5905 c -0.6427,-3.6762 -2.62906,-25.3899 -4.41413,-48.2528 -1.78506,-22.8628 -3.65165,-41.9749 -4.14796,-42.4712 -0.49631,-0.4963 -0.90238,1.2532 -0.90238,3.8878 0,2.7194 -0.60402,4.104 -1.39723,3.2028 -1.91418,-2.1748 -6.95776,-24.2944 -6.95776,-30.5146 0,-9.6745 -0.92736,-10.3413 -14.38226,-10.3413 h -12.35371 v -12.4339 c 0,-6.8386 0.67956,-12.8539 1.51014,-13.3672 0.83058,-0.5133 1.98753,-9.0171 2.571,-18.8973 1.79316,-30.3646 4.55232,-60.0906 8.41435,-90.65247 4.03351,-31.91881 3.9087,-31.97994 6.82299,3.34197 0.56871,6.8929 1.69733,15.6203 2.50804,19.3942 4.19807,19.5424 9.99886,65.8903 10.9868,87.7837 1.00635,22.3014 1.42435,24.831 4.10318,24.831 3.49799,0 4.23392,-4.3577 5.64397,-33.42 2.04741,-42.1987 2.9139,-56.0092 3.55584,-56.6747 0.3694,-0.3829 0.67991,3.3768 0.69002,8.355 0.0341,16.7973 2.85725,26.2218 5.66388,18.9079 0.56475,-1.4718 1.90133,-17.6358 2.97017,-35.9201 1.06885,-18.2843 2.11368,-33.0591 2.32186,-32.8328 0.20818,0.2262 1.69405,14.3224 3.30193,31.3248 1.60787,17.0024 3.56519,31.6278 4.34958,32.5009 0.82653,0.92 1.42617,-0.351 1.42617,-3.0229 0,-2.648 0.71122,-4.1707 1.671,-3.5775 0.91905,0.568 1.671,7.3184 1.671,15.0009 0,14.6204 1.00684,19.8622 3.51709,18.3108 0.82274,-0.5085 1.4959,0.9554 1.4959,3.253 0,7.1162 3.08085,6.5074 5.09935,-1.0078 1.05622,-3.9325 2.57446,-8.8282 3.37387,-10.8794 0.79942,-2.0512 1.95563,-8.6307 2.56938,-14.6212 0.61374,-5.9905 1.64435,-10.8918 2.29023,-10.8918 2.19903,0 4.82878,17.49 6.90928,45.9524 1.16501,15.938 2.86257,28.9458 3.8674,29.6346 2.38004,1.6315 14.61502,1.5732 17.22092,-0.082 2.22021,-1.4102 4.33451,-17.7617 7.49434,-57.9595 l 1.97029,-25.0649 1.76001,11.6969 c 0.96801,6.4334 2.27641,10.9031 2.90757,9.9327 1.02148,-1.5705 6.36429,-38.2574 6.36429,-43.701 0,-1.1869 1.12792,-2.1581 2.50649,-2.1581 1.47028,0 2.52751,-1.5543 2.55731,-3.7598 0.0393,-2.9102 0.36651,-3.1934 1.44802,-1.2532 2.16787,3.889 6.71422,49.7935 7.77824,78.5369 1.03638,27.9964 1.68019,33.42 3.96713,33.42 0.81594,0 2.02593,-10.5273 2.68885,-23.394 0.66293,-12.8667 1.76378,-23.394 2.44635,-23.394 0.68257,0 1.76579,6.0156 2.40714,13.368 0.64136,7.3524 1.77872,13.368 2.52748,13.368 2.50402,0 3.42023,-8.9222 5.23353,-50.9655 0.99097,-22.9762 2.42483,-44.0307 3.18637,-46.7879 l 1.38463,-5.013 0.15072,5.7169 c 0.0829,3.1443 1.30423,6.9916 2.71409,8.5495 1.40987,1.5578 3.25498,7.2567 4.10027,12.664 1.30146,8.3255 5.03332,75.8041 5.03332,91.0115 0,4.5462 0.43708,4.8765 6.45351,4.8765 h 6.45351 l 1.00011,-12.1148 c 0.55006,-6.6631 2.20403,-27.9056 3.67549,-47.2057 1.47145,-19.3 3.22672,-38.8507 3.90058,-43.4459 1.16751,-7.9617 1.36504,-7.3324 4.19574,13.368 1.6338,11.9476 3.6569,32.6262 4.49576,45.9524 0.83885,13.3262 2.00934,28.5532 2.60107,33.8377 1.05497,9.4218 0.99476,9.6083 -3.1017,9.6083 -4.01078,0 -4.22412,0.5337 -5.34367,13.3679 -0.83792,9.6058 -1.80752,13.368 -3.44517,13.368 -3.24028,0 -3.56978,1.8218 -7.55588,41.775 -4.61283,46.2348 -5.74446,50.8581 -7.36212,30.0779 -2.02485,-26.0109 -5.47282,-50.3039 -7.4155,-52.2466 -3.73856,-3.7385 -8.13609,11.8698 -10.24758,36.3722 -2.67791,31.0754 -4.5432,46.4044 -4.80275,39.4696 -0.1163,-3.106 -2.0555,-14.0093 -4.30941,-24.2294 -5.08041,-23.0368 -7.28357,-39.2186 -8.68834,-63.8145 -1.00917,-17.6693 -2.56874,-23.348 -4.44275,-16.1769 -0.4203,1.6083 -0.85141,-0.2715 -0.95802,-4.1775 -0.30832,-11.296 -4.96092,-8.303 -5.40751,3.4787 -0.20368,5.3734 -0.79568,3.4399 -4.13504,-13.5047 -0.67715,-3.436 -1.67339,-3.7597 -11.5706,-3.7597 h -10.82965 l -0.0256,5.4307 c -0.0189,4.005 -0.43395,4.785 -1.5811,2.9711 -2.47595,-3.9151 -3.03886,-0.1738 -4.14125,27.5246 -2.01254,50.5667 -3.8937,57.4786 -7.50387,27.5715 -1.05393,-8.731 -2.73796,-20.0102 -3.74227,-25.065 -2.64803,-13.3276 -4.31674,-7.0266 -5.73672,21.6616 -0.63854,12.9004 -1.79876,23.4554 -2.57828,23.4554 -0.77952,0 -2.48605,2.4438 -3.79229,5.4307 -1.96625,4.4961 -2.39844,4.8007 -2.51129,1.7696 -0.23164,-6.2216 -3.24766,-5.9515 -4.43875,0.3975 -0.62113,3.3109 -1.72604,5.3997 -2.45538,4.6417 -1.86057,-1.9335 -4.61904,-32.9091 -5.96341,-66.9647 -1.01988,-25.8358 -1.43928,-28.8247 -4.04457,-28.8247 -2.14373,0 -3.17768,1.8641 -3.939,7.1017 -1.76289,12.1279 -5.8899,53.4491 -7.65549,76.6497 -2.13379,28.0388 -3.48815,38.2314 -5.08005,38.2314 -0.69346,0 -1.69988,-1.6789 -2.23649,-3.7309 -1.36041,-5.2022 -4.58906,-1.6923 -6.04383,6.5702 l -1.11825,6.3512 z"
   id="path2178" /><path
   style="fill:#214478;stroke-width:1.671"
   d="m 615.99065,1267.0343 c -3.68751,-99.2522 -4.43932,-116.6294 -5.4221,-125.3249 l -1.08594,-9.6082 h -7.16109 -7.16108 l -1.10149,12.9502 c -0.60582,7.1226 -1.36256,13.7022 -1.68164,14.6212 -1.58255,4.5581 -0.57127,-65.4435 1.72602,-119.4763 3.32446,-78.19242 4.74605,-88.38234 6.41083,-45.95247 1.40107,35.70877 6.84736,103.78037 9.89564,123.68287 1.99645,13.0349 2.05324,13.1409 7.85947,14.6693 3.21667,0.8468 12.86948,1.1832 21.45067,0.7476 l 15.60218,-0.7919 -1.033,17.7379 c -1.38746,23.8244 -2.49881,31.9415 -4.37327,31.9415 -0.86274,0 -1.67102,3.9477 -1.79617,8.7727 -0.2514,9.6916 -0.73059,7.7653 -2.35005,-9.4471 -0.63798,-6.7808 -1.63222,-10.6511 -2.41202,-9.3894 -0.85013,1.3756 -1.74555,-0.3329 -2.49289,-4.7563 -0.64142,-3.7966 -1.78793,-6.9029 -2.54778,-6.9029 -1.76435,0 -2.89757,14.6167 -4.92297,63.498 -1.383,33.3777 -4.11989,58.1452 -7.80149,70.5996 -0.49513,1.675 -2.48879,2.9243 -4.66662,2.9243 -3.77532,0 -3.81021,-0.2156 -4.93521,-30.4957 z"
   id="path2180" /><path
   style="fill:#214478;stroke-width:1.671"
   d="m 1242.3478,1110.7959 c 0.623,-11.7178 1.821,-25.8169 2.6621,-31.3312 0.8412,-5.5143 1.5351,-14.3711 1.542,-19.6817 0.026,-19.9381 7.9225,-85.28264 11.9586,-98.95913 l 1.9725,-6.68399 1.3515,5.84849 c 2.145,9.28187 7.9198,78.30493 9.1572,109.45033 0.6207,15.6239 1.8706,28.8895 2.7776,29.4792 0.9069,0.5897 2.0269,8.2971 2.4888,17.1277 l 0.8398,16.0556 h -17.9415 -17.9414 z"
   id="path2182" /><path
   style="fill:#214478;stroke-width:1.671"
   d="m 1314.5594,1237.5467 c -0.6352,-5.8789 -1.1549,-16.5942 -1.1549,-23.8117 0,-14.7672 -2.3322,-17.4896 -4.0285,-4.7025 -0.6144,4.6312 -1.832,10.3011 -2.706,12.5997 -1.3254,3.486 -2.1238,3.8931 -4.8129,2.4539 -1.7732,-0.9489 -4.1478,-4.5245 -5.2769,-7.9457 -1.7441,-5.2848 -2.2353,-5.7265 -3.2657,-2.9371 -0.6671,1.8058 -1.7722,8.8588 -2.4557,15.6733 -1.9184,19.1254 -3.8019,11.3853 -6.7227,-27.6268 -1.4368,-19.1913 -3.3216,-41.6607 -4.1885,-49.9322 -2.0773,-19.8205 -2.131,-19.2164 1.7079,-19.2164 2.9628,0 3.342,-1.114 3.342,-9.8171 0,-11.5486 1.5526,-20.5313 3.3561,-19.4167 2.5829,1.5964 4.9552,-3.8852 6.9235,-15.9983 1.1098,-6.8295 2.5506,-13.0476 3.2017,-13.8179 0.651,-0.7702 1.6904,4.8694 2.3096,12.5325 1.6607,20.5529 6.025,45.5044 8.205,46.9096 1.0475,0.6752 3.4085,1.2277 5.2466,1.2277 1.838,0 4.1966,-0.5525 5.2411,-1.2277 1.1687,-0.7554 2.634,-12.4749 3.8098,-30.4701 1.0508,-16.0834 2.4065,-33.0022 3.0126,-37.5975 l 1.1019,-8.3549 2.831,16.7099 c 1.5571,9.1905 3.7968,26.2654 4.9771,37.9441 2.1252,21.0268 2.1903,21.2438 6.6641,22.2264 2.4848,0.5458 6.4116,0.517 8.7262,-0.064 4.5913,-1.1524 4.2876,0.5136 7.2497,-39.7659 0.8028,-10.9165 1.8523,-15.4768 4.038,-17.5455 1.6243,-1.5372 3.3231,-4.299 3.7752,-6.1371 0.7449,-3.0282 0.8402,-2.989 1.0159,0.4178 0.1066,2.0678 0.8399,3.7597 1.6295,3.7597 1.5631,0 2.9251,-10.7878 8.8081,-69.7641 2.1315,-21.36792 4.3908,-38.85074 5.0208,-38.85074 0.6299,0 1.634,6.57956 2.2313,14.62124 0.5972,8.04167 2.5096,27.7803 4.2497,43.8637 1.7401,16.0833 3.6722,34.8821 4.2936,41.7749 1.274,14.1327 3.1529,19.0785 6.7269,17.707 1.5492,-0.5945 3.0039,0.5715 4.008,3.2124 2.7159,7.1434 4.5671,4.5796 5.7544,-7.9691 0.6303,-6.6631 1.7086,-14.7466 2.3961,-17.9632 l 1.25,-5.8485 1.287,6.6344 c 0.7078,3.649 1.9126,16.8081 2.6773,29.2425 0.7648,12.4344 2.2655,25.0187 3.3351,27.9652 3.7995,10.4672 -2.0512,88.5036 -7.654,102.0897 -1.9311,4.6826 -2.7528,5.2604 -5.4375,3.8236 -4.1769,-2.2355 -4.7931,-6.7867 -7.19,-53.106 l -2.0206,-39.0463 -20.1812,0.4669 -20.1812,0.4669 -1.2188,11.697 c -6.3945,61.3666 -12.3565,91.3382 -15.3872,77.352 -0.9014,-4.1597 -3.5122,-31.9005 -5.1962,-55.2113 -0.581,-8.0417 -1.6381,-14.6213 -2.3492,-14.6213 -1.3933,0 -2.7499,18.6095 -4.4462,60.9915 -0.5886,14.7048 -1.6118,27.7536 -2.2738,28.9974 -0.6621,1.2438 -1.7249,-3.9877 -2.3619,-11.6257 -1.7817,-21.3639 -3.8984,-20.6722 -6.7839,2.2167 l -1.9543,15.5025 z"
   id="path2184" /><path
   style="fill:#214478;stroke-width:3.342"
   d="m 290.21342,1018.7843 1.13076,-550.28351 11.66421,-33.51043 c 25.799,-74.11861 67.67618,-137.54243 127.21969,-192.67674 35.50272,-32.87374 76.29333,-59.21151 139.58225,-90.12575 110.2614,-53.858539 204.94777,-84.605442 316.53211,-102.785475 44.41917,-7.237053 186.96066,-8.130637 231.55526,-1.451605 112.5367,16.854865 215.339,49.556788 327.5156,104.18435 79.2283,38.58244 133.7033,78.72614 178.1669,131.29458 61.0904,72.22601 91.4814,137.05524 97.3871,207.74294 1.6938,20.27449 4.1339,271.09487 5.4222,557.37864 l 2.3426,520.5158 h -62.287 -62.287 l -0.027,-522.1868 c -0.017,-315.5239 -1.3082,-533.34518 -3.2667,-550.38107 -5.6267,-48.94383 -32.8892,-96.27281 -88.3741,-153.42164 -56.0103,-57.69148 -98.3143,-84.2393 -186.5717,-117.08348 -88.9686,-33.10883 -165.8821,-53.24831 -230.448,-60.34187 -47.0978,-5.17442 -142.90257,-4.39769 -188.78329,1.53055 -89.25492,11.5326 -212.75993,50.12847 -295.66102,92.39539 C 526.18376,302.8351 452.1229,382.76205 419.31711,466.47227 l -8.25159,21.05554 v 540.76969 540.7696 l -60.99143,4e-4 -60.99143,3e-4 z"
   id="path2186" /></svg>
